{
  "accessors": [
    {
      "bufferView": 2,
      "componentType": 5126,
      "count": 49944,
      "max": [
        0.3860830068588257,
        0.5945209860801697,
        1.2528660297393799
      ],
      "min": [
        -0.3941749930381775,
        -0.5996450185775757,
        0.0037750001065433025
      ],
      "type": "VEC3"
    },
    {
      "bufferView": 2,
      "byteOffset": 599328,
      "componentType": 5126,
      "count": 49944,
      "max": [
        1.0,
        1.0,
        0.9999969005584717
      ],
      "min": [
        -1.0,
        -1.0,
        -0.9999982118606567
      ],
      "type": "VEC3"
    },
    {
      "bufferView": 3,
      "componentType": 5126,
      "count": 49944,
      "max": [
        0.9999998211860657,
        0.9999998807907104,
        1.0,
        1.0
      ],
      "min": [
        -1.0,
        -1.0,
        -0.9999997615814209,
        -1.0
      ],
      "type": "VEC4"
    },
    {
      "bufferView": 1,
      "componentType": 5126,
      "count": 49944,
      "max": [
        0.9910200238227844,
        0.9945899844169617
      ],
      "min": [
        0.005410000216215849,
        0.005400000140070915
      ],
      "type": "VEC2"
    },
    {
      "bufferView": 0,
      "componentType": 5125,
      "count": 283344,
      "type": "SCALAR"
    },
    {
      "bufferView": 2,
      "byteOffset": 1198656,
      "componentType": 5126,
      "count": 90,
      "max": [
        0.31502801179885864,
        0.5184490084648132,
        1.1313740015029907
      ],
      "min": [
        -0.31571799516677856,
        -0.5418300032615662,
        1.0241199731826782
      ],
      "type": "VEC3"
    },
    {
      "bufferView": 2,
      "byteOffset": 1199736,
      "componentType": 5126,
      "count": 90,
      "max": [
        0.9976576566696167,
        0.9217487573623657,
        0.9847748875617981
      ],
      "min": [
        -0.9835737347602844,
        -0.9981953501701355,
        -0.7804253101348877
      ],
      "type": "VEC3"
    },
    {
      "bufferView": 3,
      "byteOffset": 799104,
      "componentType": 5126,
      "count": 90,
      "max": [
        0.8854278922080994,
        0.9799644947052002,
        0.8919467926025391,
        1.0
      ],
      "min": [
        -0.9984967112541199,
        -0.999694287776947,
        -0.8529180288314819,
        -1.0
      ],
      "type": "VEC4"
    },
    {
      "bufferView": 1,
      "byteOffset": 399552,
      "componentType": 5126,
      "count": 90,
      "max": [
        0.990909993648529,
        0.19298000633716583
      ],
      "min": [
        0.716159999370575,
        0.005400000140070915
      ],
      "type": "VEC2"
    },
    {
      "bufferView": 0,
      "byteOffset": 1133376,
      "componentType": 5125,
      "count": 384,
      "type": "SCALAR"
    }
  ],
  "asset": {
    "extras": {
      "author": "blenderboom (https://sketchfab.com/blenderboom)",
      "license": "CC-BY-4.0 (http://creativecommons.org/licenses/by/4.0/)",
      "source": "https://sketchfab.com/3d-models/beehive-box-79e7f4b1d2db4e72bb51c804683da6bd",
      "title": "Beehive box"
    },
    "generator": "Sketchfab-12.63.0",
    "version": "2.0"
  },
  "bufferViews": [
    {
      "buffer": 0,
      "byteLength": 1134912,
      "name": "floatBufferViews",
      "target": 34963
    },
    {
      "buffer": 0,
      "byteLength": 400272,
      "byteOffset": 1134912,
      "byteStride": 8,
      "name": "floatBufferViews",
      "target": 34962
    },
    {
      "buffer": 0,
      "byteLength": 1200816,
      "byteOffset": 1535184,
      "byteStride": 12,
      "name": "floatBufferViews",
      "target": 34962
    },
    {
      "buffer": 0,
      "byteLength": 800544,
      "byteOffset": 2736000,
      "byteStride": 16,
      "name": "floatBufferViews",
      "target": 34962
    }
  ],
  "buffers": [
    {
      "byteLength": 3536544,
      "uri": "scene.bin"
    }
  ],
  "images": [
    {
      "uri": "textures/BB_066_001_baseColor.png"
    },
    {
      "uri": "textures/BB_066_001_normal.png"
    }
  ],
  "materials": [
    {
      "doubleSided": true,
      "name": "BB_066_001",
      "normalTexture": {
        "index": 1,
        "scale": 0.42802085876464846
      },
      "pbrMetallicRoughness": {
        "baseColorTexture": {
          "index": 0
        },
        "metallicFactor": 0.0,
        "roughnessFactor": 0.6
      }
    }
  ],
  "meshes": [
    {
      "name": "Object_0",
      "primitives": [
        {
          "attributes": {
            "NORMAL": 1,
            "POSITION": 0,
            "TANGENT": 2,
            "TEXCOORD_0": 3
          },
          "indices": 4,
          "material": 0,
          "mode": 4
        }
      ]
    },
    {
      "name": "Object_1",
      "primitives": [
        {
          "attributes": {
            "NORMAL": 6,
            "POSITION": 5,
            "TANGENT": 7,
            "TEXCOORD_0": 8
          },
          "indices": 9,
          "material": 0,
          "mode": 4
        }
      ]
    }
  ],
  "nodes": [
    {
      "children": [
        1
      ],
      "matrix": [
        1.0,
        0.0,
        0.0,
        0.0,
        0.0,
        2.220446049250313e-16,
        -1.0,
        0.0,
        0.0,
        1.0,
        2.220446049250313e-16,
        0.0,
        0.0,
        0.0,
        0.0,
        1.0
      ],
      "name": "Sketchfab_model"
    },
    {
      "children": [
        2,
        3
      ],
      "name": "BB_066_.obj.cleaner.materialmerger.gles"
    },
    {
      "mesh": 0,
      "name": "Object_2"
    },
    {
      "mesh": 1,
      "name": "Object_3"
    }
  ],
  "samplers": [
    {
      "magFilter": 9729,
      "minFilter": 9987,
      "wrapS": 10497,
      "wrapT": 10497
    }
  ],
  "scene": 0,
  "scenes": [
    {
      "name": "Sketchfab_Scene",
      "nodes": [
        0
      ]
    }
  ],
  "textures": [
    {
      "sampler": 0,
      "source": 0
    },
    {
      "sampler": 0,
      "source": 1
    }
  ]
}
